<svg xmlns="http://www.w3.org/2000/svg" xmlns:xlink="http://www.w3.org/1999/xlink" version="1.1" width="1000" height="1000" viewBox="0 0 1000 1000" xml:space="preserve">
<desc>Created with Fabric.js 3.5.0</desc>
<defs>
</defs>
<g transform="matrix(0 -37.8788 37.8788 0 500.0001 499.9999)" id="736863">
<g style="" vector-effect="non-scaling-stroke">
		<g transform="matrix(1 0 0 1 5 5)">
<path style="stroke: rgb(255,255,255); stroke-width: 2; stroke-dasharray: none; stroke-linecap: round; stroke-dashoffset: 0; stroke-linejoin: round; stroke-miterlimit: 4; is-custom-font: none; font-file-url: none; fill: none; fill-rule: nonzero; opacity: 1;" transform=" translate(-17, -17)" d="M 15.707 21.293 a 1 1 0 0 1 -1.414 0 l -1.586 -1.586 a 1 1 0 0 1 0 -1.414 l 5.586 -5.586 a 1 1 0 0 1 1.414 0 l 1.586 1.586 a 1 1 0 0 1 0 1.414 z" stroke-linecap="round"/>
</g>
		<g transform="matrix(1 0 0 1 -2 -2)">
<path style="stroke: rgb(255,255,255); stroke-width: 2; stroke-dasharray: none; stroke-linecap: round; stroke-dashoffset: 0; stroke-linejoin: round; stroke-miterlimit: 4; is-custom-font: none; font-file-url: none; fill: none; fill-rule: nonzero; opacity: 1;" transform=" translate(-10, -10)" d="m 18 13 l -1.375 -6.874 a 1 1 0 0 0 -0.746 -0.776 L 3.235 2.028 a 1 1 0 0 0 -1.207 1.207 L 5.35 15.879 a 1 1 0 0 0 0.776 0.746 L 13 18" stroke-linecap="round"/>
</g>
		<g transform="matrix(1 0 0 1 -6.057 -6.057)">
<path style="stroke: rgb(255,255,255); stroke-width: 2; stroke-dasharray: none; stroke-linecap: round; stroke-dashoffset: 0; stroke-linejoin: round; stroke-miterlimit: 4; is-custom-font: none; font-file-url: none; fill: none; fill-rule: nonzero; opacity: 1;" transform=" translate(-5.943, -5.943)" d="m 2.3 2.3 l 7.286 7.286" stroke-linecap="round"/>
</g>
		<g transform="matrix(1 0 0 1 -1 -1)">
<circle style="stroke: rgb(255,255,255); stroke-width: 2; stroke-dasharray: none; stroke-linecap: round; stroke-dashoffset: 0; stroke-linejoin: round; stroke-miterlimit: 4; is-custom-font: none; font-file-url: none; fill: none; fill-rule: nonzero; opacity: 1;" cx="0" cy="0" r="2"/>
</g>
</g>
</g>
</svg>